<?xml version="1.0" encoding="utf-8"?>
<!-- Generator: Adobe Illustrator 19.1.0, SVG Export Plug-In . SVG Version: 6.00 Build 0)  -->
<svg version="1.1" id="Layer_1" xmlns="http://www.w3.org/2000/svg" xmlns:xlink="http://www.w3.org/1999/xlink" x="0px" y="0px"
	 viewBox="0 0 322.1 43.8" style="enable-background:new 0 0 322.1 43.8;" xml:space="preserve">
<style type="text/css">
	.st0{fill:#885FA8;}
</style>
<path class="st0" d="M213.5,0.1h13.1c1.7,0,3.3,0.2,5,0.5c1.7,0.3,3.2,0.9,4.6,1.8c1.3,0.8,2.4,2,3.3,3.4c0.8,1.4,1.3,3.2,1.3,5.4
	c0,2.3-0.7,4.3-2.1,6c-1.4,1.7-3.3,2.8-5.7,3.4v0.1c2.8,0.3,5.2,1.4,7.1,3.3c1.9,1.9,2.8,4.4,2.8,7.6c0,1.8-0.4,3.5-1.1,5
	c-0.8,1.5-1.8,2.8-3.2,3.8c-1.4,1-3.1,1.9-5.1,2.4c-2,0.6-4.3,0.9-6.8,0.9h-13V0.1z M217.9,19.2h9c1.1,0,2.2-0.1,3.3-0.4
	c1.1-0.2,2.1-0.7,3-1.3c0.9-0.6,1.6-1.4,2.2-2.4c0.6-1,0.8-2.2,0.8-3.6c0-1.4-0.3-2.6-0.8-3.5c-0.6-1-1.3-1.8-2.3-2.4
	c-1-0.6-2.1-1.1-3.3-1.3c-1.3-0.3-2.6-0.4-4.1-0.4h-7.7V19.2z M217.9,39.9h8.3c1.6,0,3.1-0.2,4.6-0.5c1.5-0.3,2.7-0.8,3.8-1.5
	c1.1-0.7,2-1.6,2.6-2.7c0.7-1.1,1-2.4,1-3.9c0-2.9-1-5-2.9-6.4c-2-1.4-4.7-2.1-8.3-2.1h-9.1V39.9z"/>
<path class="st0" d="M268.6,43.8c-3.2,0-5.9-0.6-7.9-1.7c-2.1-1.1-3.7-2.5-4.9-4.2c-1.2-1.7-2-3.5-2.5-5.5c-0.5-2-0.7-3.9-0.7-5.6
	V0.1h4.4v26.2c0,1.7,0.2,3.4,0.6,5c0.4,1.6,1.1,3.1,2,4.3c0.9,1.3,2.1,2.3,3.6,3.1c1.5,0.8,3.3,1.2,5.5,1.2s4-0.4,5.5-1.2
	c1.5-0.8,2.7-1.8,3.6-3.1c0.9-1.3,1.6-2.7,2-4.3c0.4-1.6,0.6-3.3,0.6-5V0.1h4.4v26.7c0,1.8-0.2,3.6-0.7,5.6c-0.5,2-1.3,3.8-2.5,5.5
	c-1.2,1.7-2.9,3.1-4.9,4.2C274.4,43.2,271.8,43.8,268.6,43.8z"/>
<path class="st0" d="M317.5,7.8c-0.9-1.3-2.1-2.3-3.5-3c-1.4-0.8-3.1-1.1-5.1-1.1c-1,0-2.1,0.2-3.1,0.5c-1.1,0.3-2,0.8-2.9,1.4
	c-0.9,0.6-1.6,1.5-2.1,2.4c-0.5,1-0.8,2.1-0.8,3.5c0,1.3,0.3,2.4,0.8,3.3c0.5,0.9,1.2,1.6,2,2.2c0.8,0.6,1.8,1.1,2.9,1.5
	c1.1,0.4,2.2,0.8,3.4,1.2c1.4,0.5,2.9,1,4.4,1.5c1.5,0.5,2.8,1.3,4,2.1c1.2,0.9,2.1,2,2.9,3.3c0.7,1.4,1.1,3.1,1.1,5.1
	c0,2.1-0.4,3.9-1.2,5.4c-0.8,1.5-1.8,2.8-3.1,3.7c-1.3,1-2.7,1.7-4.3,2.2c-1.6,0.5-3.3,0.7-4.9,0.7c-1.3,0-2.5-0.1-3.8-0.4
	c-1.3-0.3-2.5-0.6-3.6-1.1c-1.1-0.5-2.2-1.2-3.2-1.9c-1-0.8-1.8-1.7-2.6-2.7l3.7-2.7c0.9,1.5,2.2,2.7,3.8,3.7c1.6,1,3.5,1.5,5.7,1.5
	c1.1,0,2.1-0.2,3.2-0.5c1.1-0.3,2.1-0.8,3-1.5c0.9-0.7,1.6-1.5,2.2-2.5c0.6-1,0.9-2.2,0.9-3.5c0-1.4-0.3-2.7-0.9-3.6
	c-0.6-1-1.3-1.8-2.3-2.4c-0.9-0.6-2-1.2-3.2-1.6c-1.2-0.4-2.5-0.9-3.8-1.3c-1.4-0.4-2.7-0.9-4.1-1.5c-1.3-0.5-2.5-1.3-3.6-2.1
	c-1.1-0.9-1.9-2-2.6-3.3c-0.6-1.3-1-2.9-1-4.8c0-2,0.4-3.7,1.2-5.2c0.8-1.4,1.9-2.6,3.2-3.6c1.3-0.9,2.7-1.6,4.3-2.1
	c1.6-0.4,3.1-0.6,4.7-0.6c2.8,0,5.2,0.5,7.3,1.5c2,1,3.5,2.2,4.5,3.6L317.5,7.8z"/>
<path class="st0" d="M21.7,36.2L21.7,36.2L36.4,0h6.8v43.7h-4.5v-38h-0.1l-15.9,38h-2.4L4.6,5.7H4.5v38H0V0h6.8L21.7,36.2z"/>
<path class="st0" d="M130.8,8.7c-1.5-1.5-3.2-2.7-5.2-3.6c-2-0.8-4.3-1.3-6.9-1.3c-2.7,0-5.1,0.5-7.2,1.5c-2.1,1-4,2.3-5.5,4
	c-1.5,1.7-2.6,3.6-3.4,5.8c-0.8,2.2-1.2,4.5-1.2,6.9c0,2.4,0.4,4.7,1.2,6.9c0.8,2.2,2,4.1,3.4,5.7c1.5,1.6,3.3,3,5.5,3.9
	c2.1,1,4.5,1.5,7.2,1.5c2.4,0,4.5-0.3,6.5-0.8c2-0.5,3.6-1.2,4.8-1.9V24.7h-9.7v-3.8h14v18.8c-2.3,1.4-4.7,2.4-7.4,3.1
	c-2.6,0.7-5.4,1-8.2,1c-3.1,0-6.1-0.5-8.7-1.6c-2.7-1.1-5-2.6-6.9-4.6c-1.9-1.9-3.4-4.2-4.5-6.9c-1.1-2.7-1.6-5.6-1.6-8.7
	s0.5-6.1,1.7-8.7c1.1-2.7,2.6-5,4.6-6.9c1.9-1.9,4.2-3.5,6.9-4.6c2.7-1.1,5.5-1.6,8.6-1.6c3.3,0,6.2,0.5,8.7,1.5
	c2.5,1,4.6,2.4,6.4,4.1L130.8,8.7z"/>
<path class="st0" d="M153.1,43.8h-4.5V0.1h4.5V43.8z"/>
<path class="st0" d="M200,35.9c-0.7,1.1-1.6,2.1-2.6,3c-1,0.9-2.2,1.8-3.5,2.5c-1.3,0.7-2.8,1.3-4.4,1.7c-1.6,0.4-3.3,0.6-5.2,0.6
	c-3.1,0-6-0.5-8.7-1.6c-2.7-1.1-5-2.6-6.9-4.5c-1.9-1.9-3.4-4.2-4.5-6.9c-1.1-2.7-1.6-5.6-1.6-8.7s0.5-6.1,1.6-8.7
	c1.1-2.7,2.6-5,4.6-6.9c1.9-1.9,4.2-3.4,6.9-4.5c2.6-1.1,5.5-1.6,8.6-1.6c1.5,0,3,0.2,4.5,0.5c1.5,0.3,2.9,0.8,4.2,1.3
	c1.3,0.6,2.5,1.3,3.5,2.1c1.1,0.8,1.9,1.7,2.6,2.7l-3.5,2.6c-0.4-0.7-1-1.3-1.7-2c-0.7-0.7-1.6-1.3-2.6-1.8c-1-0.5-2.1-0.9-3.2-1.2
	c-1.2-0.3-2.4-0.5-3.7-0.5c-2.7,0-5.1,0.5-7.3,1.5c-2.1,1-4,2.3-5.4,3.9c-1.5,1.7-2.6,3.6-3.4,5.8c-0.8,2.2-1.2,4.5-1.2,6.9
	c0,2.4,0.4,4.7,1.2,6.9c0.8,2.2,2,4.1,3.4,5.8c1.5,1.7,3.3,3,5.4,3.9c2.1,1,4.5,1.5,7.2,1.5c2.4,0,4.7-0.5,6.8-1.5
	c2.2-1,4-2.5,5.4-4.7L200,35.9z"/>
<path class="st0" d="M93.2,41L75.5,0h-3.4L54.5,41l-7.3,0l0,2.9h53.2V41L93.2,41z M58.8,41l15-36l15,36H58.8z"/>
</svg>
